<svg width="164" height="235" viewBox="0 0 164 235" fill="none" xmlns="http://www.w3.org/2000/svg">
<path d="M27.4139 66.6206H99.0623L114.917 22.9319C105.764 15.9953 94.4033 11.8276 82.0463 11.8276C75.786 45.0948 27.4139 36.3573 27.4139 66.6206Z" fill="white"/>
<path d="M99.0623 66.6206H119.826L129.597 39.6937L140.122 10.6926L121.787 4L114.917 22.9319L114.918 22.933L99.0623 66.6206Z" fill="white"/>
<path d="M119.826 66.6206H136.679C136.679 56.8264 134.086 47.6485 129.597 39.6937L119.826 66.6206Z" fill="white"/>
<path d="M150.337 66.6206H13.756L15.7071 90.1033H148.386L150.337 66.6206Z" fill="white"/>
<path d="M28.8513 149.626C30.8816 151.434 33.5218 152.559 36.4469 152.559C42.8025 152.559 47.9554 147.394 47.9554 141.017V125.627C47.9554 119.25 53.1084 114.085 59.464 114.085C65.8195 114.085 70.9725 119.25 70.9725 125.627V130.244C70.9725 136.621 76.1254 141.786 82.481 141.786C88.8366 141.786 93.9895 136.621 93.9895 130.244V117.932C93.9895 111.555 99.1425 106.39 105.498 106.39C111.854 106.39 117.007 111.555 117.007 117.932V121.78C117.007 128.157 122.16 133.322 128.515 133.322C132.381 133.322 135.784 131.398 137.87 128.465L140.983 91H24.9384V102.542L28.8513 149.626Z" fill="white"/>
<path fill-rule="evenodd" clip-rule="evenodd" d="M22.5362 90.1036L34.2431 231H129.85L141.557 90.1036H22.5362ZM36.4469 152.559C33.5218 152.559 30.8816 151.434 28.8513 149.626L24.9384 102.542V91H140.983L137.87 128.465C135.784 131.398 132.381 133.322 128.515 133.322C122.16 133.322 117.007 128.157 117.007 121.78V117.932C117.007 111.555 111.854 106.39 105.498 106.39C99.1425 106.39 93.9895 111.555 93.9895 117.932V130.244C93.9895 136.621 88.8366 141.786 82.481 141.786C76.1254 141.786 70.9725 136.621 70.9725 130.244V125.627C70.9725 119.25 65.8195 114.085 59.464 114.085C53.1084 114.085 47.9554 119.25 47.9554 125.627V141.017C47.9554 147.394 42.8025 152.559 36.4469 152.559Z" fill="white"/>
<path d="M4 66.6207H160.093M140.122 10.6926L121.787 4L114.917 22.9319M140.122 10.6926L119.826 66.6206M140.122 10.6926L129.597 39.6937M99.0623 66.6206H119.826M99.0623 66.6206H27.4139C27.4139 36.3573 75.786 45.0948 82.0463 11.8276C94.4033 11.8276 105.764 15.9953 114.917 22.9319M99.0623 66.6206L114.918 22.933L114.917 22.9319M99.0623 66.6206L114.917 22.9319M119.826 66.6206H136.679C136.679 56.8264 134.086 47.6485 129.597 39.6937M119.826 66.6206L129.597 39.6937M129.597 39.6937V39.6937ZM148.386 90.1033L150.337 66.6206H13.756L15.7071 90.1033H148.386ZM22.5362 90.1036L34.2431 231H129.85L141.557 90.1036H22.5362ZM28.8513 149.626C30.8816 151.434 33.5218 152.559 36.4469 152.559C42.8025 152.559 47.9554 147.394 47.9554 141.017V125.627C47.9554 119.25 53.1084 114.085 59.464 114.085C65.8195 114.085 70.9725 119.25 70.9725 125.627V130.244C70.9725 136.621 76.1254 141.786 82.481 141.786C88.8366 141.786 93.9895 136.621 93.9895 130.244V117.932C93.9895 111.555 99.1425 106.39 105.498 106.39C111.854 106.39 117.007 111.555 117.007 117.932V121.78C117.007 128.157 122.16 133.322 128.515 133.322C132.381 133.322 135.784 131.398 137.87 128.465L140.983 91H24.9384V102.542L28.8513 149.626Z" stroke="black" stroke-width="6.66667" stroke-miterlimit="10" stroke-linecap="round" stroke-linejoin="round"/>
<path d="M113.354 137.115C111.761 136.193 109.721 136.736 108.799 138.33C107.876 139.923 108.42 141.962 110.013 142.884L113.354 137.115ZM128.294 149.619L131.183 151.282C132.1 149.689 131.555 147.655 129.964 146.734L128.294 149.619ZM115.815 164.615C114.896 166.21 115.445 168.248 117.04 169.167C118.636 170.085 120.674 169.537 121.592 167.941L115.815 164.615ZM44.2142 175.64C45.5134 176.945 47.6239 176.949 48.9282 175.65C50.2326 174.351 50.2367 172.24 48.9376 170.936L44.2142 175.64ZM46.5759 159.687L48.9346 162.043L48.9379 162.039L46.5759 159.687ZM57.777 162.04C59.0762 163.344 61.1867 163.348 62.491 162.049C63.7953 160.75 63.7995 158.639 62.5004 157.335L57.777 162.04ZM90.881 222.551L89.7667 225.692C90.6009 225.988 91.5185 225.94 92.3172 225.559C93.116 225.177 93.7302 224.494 94.0246 223.659L90.881 222.551ZM72.7977 216.136L69.6541 215.028C69.0427 216.762 69.9506 218.663 71.6834 219.278L72.7977 216.136ZM79.193 198L80.3073 194.858C79.4731 194.562 78.5555 194.611 77.7567 194.992C76.958 195.373 76.3437 196.057 76.0494 196.891L79.193 198ZM97.2763 204.414L100.42 205.523C101.031 203.789 100.123 201.887 98.3906 201.273L97.2763 204.414ZM117.802 200.551L116.687 203.692C117.522 203.988 118.439 203.94 119.238 203.559C120.037 203.177 120.651 202.494 120.945 201.659L117.802 200.551ZM99.7185 194.136L96.5749 193.028C95.9635 194.762 96.8714 196.663 98.6042 197.278L99.7185 194.136ZM106.114 176L107.228 172.858C106.394 172.562 105.476 172.611 104.678 172.992C103.879 173.373 103.265 174.057 102.97 174.891L106.114 176ZM124.197 182.414L127.341 183.523C127.952 181.789 127.044 179.887 125.311 179.273L124.197 182.414ZM92.3429 175.201L89.9826 177.555C90.6079 178.182 91.4572 178.535 92.3429 178.535C93.2285 178.535 94.0778 178.182 94.7032 177.555L92.3429 175.201ZM78.7801 161.601L76.4198 159.247C75.1224 160.548 75.1224 162.653 76.4198 163.954L78.7801 161.601ZM92.3429 148L94.7032 145.646C94.0778 145.019 93.2285 144.667 92.3429 144.667C91.4572 144.667 90.6079 145.019 89.9826 145.646L92.3429 148ZM105.906 161.601L108.266 163.954C109.563 162.653 109.563 160.548 108.266 159.247L105.906 161.601ZM59.4937 180.965C59.4937 182.806 60.9861 184.298 62.827 184.298C64.668 184.298 66.1603 182.806 66.1603 180.965H59.4937ZM70.7686 185.597C68.9276 185.597 67.4352 187.089 67.4352 188.93C67.4352 190.771 68.9276 192.263 70.7686 192.263V185.597ZM51.3968 191.862C51.3968 194.354 49.3859 196.356 46.9255 196.356V203.023C53.0852 203.023 58.0634 198.019 58.0634 191.862H51.3968ZM46.9255 196.356C44.465 196.356 42.4542 194.354 42.4542 191.862H35.7875C35.7875 198.019 40.7657 203.023 46.9255 203.023V196.356ZM42.4542 191.862C42.4542 189.369 44.465 187.368 46.9255 187.368V180.701C40.7657 180.701 35.7875 185.705 35.7875 191.862H42.4542ZM46.9255 187.368C49.3859 187.368 51.3968 189.369 51.3968 191.862H58.0634C58.0634 185.705 53.0852 180.701 46.9255 180.701V187.368ZM116.327 214.5C116.327 216.259 114.908 217.667 113.179 217.667V224.333C118.608 224.333 122.993 219.923 122.993 214.5H116.327ZM113.179 217.667C111.449 217.667 110.031 216.259 110.031 214.5H103.365C103.365 219.923 107.75 224.333 113.179 224.333V217.667ZM110.031 214.5C110.031 212.741 111.449 211.333 113.179 211.333V204.667C107.75 204.667 103.365 209.076 103.365 214.5H110.031ZM113.179 211.333C114.908 211.333 116.327 212.741 116.327 214.5H122.993C122.993 209.076 118.608 204.667 113.179 204.667V211.333ZM63.1381 217.828C63.1381 220.32 61.1273 222.322 58.6668 222.322V228.989C64.8266 228.989 69.8048 223.985 69.8048 217.828H63.1381ZM58.6668 222.322C56.2064 222.322 54.1955 220.32 54.1955 217.828H47.5289C47.5289 223.985 52.5071 228.989 58.6668 228.989V222.322ZM54.1955 217.828C54.1955 215.335 56.2063 213.333 58.6668 213.333V206.667C52.5071 206.667 47.5289 211.671 47.5289 217.828H54.1955ZM58.6668 213.333C61.1273 213.333 63.1381 215.335 63.1381 217.828H69.8048C69.8048 211.671 64.8266 206.667 58.6668 206.667V213.333ZM110.013 142.884L126.624 152.503L129.964 146.734L113.354 137.115L110.013 142.884ZM125.405 147.955L115.815 164.615L121.592 167.941L131.183 151.282L125.405 147.955ZM48.9376 170.936C46.4854 168.474 46.4897 164.491 48.9346 162.043L44.2172 157.332C39.17 162.386 39.1743 170.58 44.2142 175.64L48.9376 170.936ZM48.9379 162.039C51.3799 159.587 55.3336 159.587 57.777 162.04L62.5004 157.335C57.4517 152.266 49.262 152.266 44.2139 157.335L48.9379 162.039ZM91.9953 219.409L73.912 212.995L71.6834 219.278L89.7667 225.692L91.9953 219.409ZM75.9413 217.245L82.3366 199.108L76.0494 196.891L69.6541 215.028L75.9413 217.245ZM78.0787 201.142L96.162 207.556L98.3906 201.273L80.3073 194.858L78.0787 201.142ZM94.1327 203.306L87.7374 221.442L94.0246 223.659L100.42 205.523L94.1327 203.306ZM118.916 197.409L100.833 190.995L98.6042 197.278L116.687 203.692L118.916 197.409ZM102.862 195.245L109.257 177.108L102.97 174.891L96.5749 193.028L102.862 195.245ZM105 179.142L123.083 185.556L125.311 179.273L107.228 172.858L105 179.142ZM121.053 181.306L114.658 199.442L120.945 201.659L127.341 183.523L121.053 181.306ZM94.7032 172.848L81.1404 159.247L76.4198 163.954L89.9826 177.555L94.7032 172.848ZM81.1404 163.954L94.7032 150.354L89.9826 145.646L76.4198 159.247L81.1404 163.954ZM89.9826 150.354L103.545 163.954L108.266 159.247L94.7032 145.646L89.9826 150.354ZM103.545 159.247L89.9826 172.848L94.7032 177.555L108.266 163.954L103.545 159.247ZM66.1603 180.965C66.1603 178.397 68.2325 176.333 70.7686 176.333V169.667C64.5332 169.667 59.4937 174.732 59.4937 180.965H66.1603ZM70.7686 176.333C73.3047 176.333 75.3768 178.397 75.3768 180.965H82.0434C82.0434 174.732 77.0039 169.667 70.7686 169.667V176.333ZM75.3768 180.965C75.3768 183.533 73.3047 185.597 70.7686 185.597V192.263C77.0039 192.263 82.0434 187.198 82.0434 180.965H75.3768Z" fill="black"/>
</svg>
