<svg width="2159" height="606" viewBox="0 0 2159 606" fill="none" xmlns="http://www.w3.org/2000/svg">
<g clip-path="url(#clip0_653_514)">
<path d="M105.959 433.995C256.004 326.435 418.635 260.222 608.939 285.79C458.121 390.629 289.51 436.709 105.959 433.995Z" fill="#B8BA93"/>
<path d="M239.712 99.6704C224.748 222.049 174.01 327.522 92.7199 418.591C105.619 295.415 145.027 184.578 239.712 99.6704Z" fill="#D4D8B8"/>
</g>
<g clip-path="url(#clip1_653_514)">
<path d="M2052.9 433.995C1902.86 326.435 1740.23 260.222 1549.92 285.79C1700.74 390.629 1869.35 436.709 2052.9 433.995Z" fill="#B8BA93"/>
<path d="M1919.15 99.6704C1934.11 222.049 1984.85 327.522 2066.14 418.591C2053.24 295.415 2013.83 184.578 1919.15 99.6704Z" fill="#D4D8B8"/>
</g>
<defs>
<clipPath id="clip0_653_514">
<rect width="389.696" height="472.026" fill="white" transform="translate(349.49) rotate(47.7658)"/>
</clipPath>
<clipPath id="clip1_653_514">
<rect width="389.696" height="472.026" fill="white" transform="matrix(-0.672163 0.740404 0.740404 0.672163 1809.37 0)"/>
</clipPath>
</defs>
</svg>
