<svg width="142" height="235" viewBox="0 0 142 235" fill="none" xmlns="http://www.w3.org/2000/svg">
<path d="M51.9521 42.4745C51.9521 37.7421 56.6917 33.6926 63.4606 31.9035L63.4608 19.9572C35.3177 23.7277 13.5906 47.8416 13.5906 77.1015H128.676C128.676 47.8416 106.949 23.7277 78.8055 19.9572L78.8054 31.9035C85.5743 33.6926 90.3139 37.7421 90.3139 42.4745C90.3139 47.2068 85.5743 51.2563 78.8054 53.0454C76.4529 53.661 73.8653 54.0168 71.133 54.0168C68.4007 54.0168 65.8132 53.661 63.4606 53.0454C56.6917 51.2563 51.9521 47.2068 51.9521 42.4745Z" fill="white"/>
<path d="M78.8054 31.9035V53.0454C85.5743 51.2563 90.3139 47.2068 90.3139 42.4745C90.3139 37.7421 85.5743 33.6926 78.8054 31.9035Z" fill="white"/>
<path d="M63.4606 31.9035C56.6917 33.6926 51.9521 37.7421 51.9521 42.4745C51.9521 47.2068 56.6917 51.2563 63.4606 53.0454V31.9035Z" fill="white"/>
<path d="M78.8054 53.0454V31.9035L78.8053 3.99988H63.4606L63.4608 19.9572L63.4606 53.0454C65.8132 53.661 68.4007 54.0168 71.133 54.0168C73.8653 54.0168 76.4529 53.661 78.8054 53.0454Z" fill="white"/>
<path d="M12.6314 92.4915L13.5906 92.4914L129.635 92.4915L136.348 92.4915L138.266 77.1017H4L5.91809 92.4915L12.6314 92.4915Z" fill="white"/>
<path d="M126.522 129.956L129.635 92.4915L13.5906 92.4914V104.034L17.5035 151.117C19.5338 152.925 22.174 154.051 25.0991 154.051C31.4547 154.051 36.6076 148.886 36.6076 142.508V127.119C36.6076 120.741 41.7606 115.576 48.1161 115.576C54.4717 115.576 59.6247 120.741 59.6247 127.119V131.736C59.6247 138.113 64.7776 143.278 71.1332 143.278C77.4888 143.278 82.6417 138.113 82.6417 131.736V119.424C82.6417 113.046 87.7947 107.881 94.1502 107.881C100.506 107.881 105.659 113.046 105.659 119.424V123.271C105.659 129.648 110.812 134.813 117.167 134.813C121.033 134.813 124.436 132.89 126.522 129.956Z" fill="white"/>
<path d="M13.5906 104.034L24.1399 231H118.126L126.522 129.956C124.436 132.89 121.033 134.813 117.167 134.813C110.812 134.813 105.659 129.648 105.659 123.271V119.424C105.659 113.046 100.506 107.881 94.1502 107.881C87.7947 107.881 82.6417 113.046 82.6417 119.424V131.736C82.6417 138.113 77.4888 143.278 71.1332 143.278C64.7776 143.278 59.6247 138.113 59.6247 131.736V127.119C59.6247 120.741 54.4717 115.576 48.1161 115.576C41.7606 115.576 36.6076 120.741 36.6076 127.119V142.508C36.6076 148.886 31.4547 154.051 25.0991 154.051C22.174 154.051 19.5338 152.925 17.5035 151.117L13.5906 104.034Z" fill="white"/>
<path d="M12.6314 92.4915L24.1399 231M12.6314 92.4915H129.635M12.6314 92.4915L13.5906 92.4914M12.6314 92.4915L5.91809 92.4915M24.1399 231H118.126M24.1399 231L13.5906 104.034M118.126 231L129.635 92.4915M118.126 231L126.522 129.956M129.635 92.4915L126.522 129.956M129.635 92.4915L13.5906 92.4914M129.635 92.4915L136.348 92.4915M136.348 92.4915L138.266 77.1017H4L5.91809 92.4915M136.348 92.4915H5.91809M126.522 129.956C124.436 132.89 121.033 134.813 117.167 134.813C110.812 134.813 105.659 129.648 105.659 123.271V119.424C105.659 113.046 100.506 107.881 94.1502 107.881C87.7947 107.881 82.6417 113.046 82.6417 119.424V131.736C82.6417 138.113 77.4888 143.278 71.1332 143.278C64.7776 143.278 59.6247 138.113 59.6247 131.736V127.119C59.6247 120.741 54.4717 115.576 48.1161 115.576C41.7606 115.576 36.6076 120.741 36.6076 127.119V142.508C36.6076 148.886 31.4547 154.051 25.0991 154.051C22.174 154.051 19.5338 152.925 17.5035 151.117L13.5906 104.034M13.5906 92.4914V104.034M63.4606 31.9035C56.6917 33.6926 51.9521 37.7421 51.9521 42.4745C51.9521 47.2068 56.6917 51.2563 63.4606 53.0454M63.4606 31.9035V53.0454M63.4606 31.9035L63.4608 19.9572M63.4606 53.0454L63.4606 3.99988M63.4606 53.0454C65.8132 53.661 68.4007 54.0168 71.133 54.0168C73.8653 54.0168 76.4529 53.661 78.8054 53.0454M63.4606 53.0454L63.4608 19.9572M78.8054 31.9035V53.0454M78.8054 31.9035C85.5743 33.6926 90.3139 37.7421 90.3139 42.4745C90.3139 47.2068 85.5743 51.2563 78.8054 53.0454M78.8054 31.9035L78.8055 19.9572M78.8054 31.9035L78.8053 3.99988M78.8054 53.0454L78.8053 3.99988M78.8054 53.0454L78.8055 19.9572M63.4606 3.99988H78.8053M63.4606 3.99988L63.4608 19.9572M78.8055 19.9572C106.949 23.7277 128.676 47.8416 128.676 77.1015H13.5906C13.5906 47.8416 35.3177 23.7277 63.4608 19.9572M63.4608 19.9572V19.9572Z" stroke="black" stroke-width="6.66667" stroke-miterlimit="10" stroke-linecap="round" stroke-linejoin="round"/>
<path d="M77.7831 215C77.7831 219.968 73.7656 224 68.8095 224C63.8533 224 59.8358 219.968 59.8358 215C59.8358 210.032 63.8533 206 68.8095 206C73.7656 206 77.7831 210.032 77.7831 215Z" fill="black"/>
<path d="M91.742 191C91.742 195.968 87.7245 200 82.7684 200C77.8123 200 73.7948 195.968 73.7948 191C73.7948 186.032 77.8123 182 82.7684 182C87.7245 182 91.742 186.032 91.742 191Z" fill="black"/>
<path d="M48.8681 191.5C48.8681 197.296 44.181 202 38.3989 202C32.6168 202 27.9297 197.296 27.9297 191.5C27.9297 185.704 32.6168 181 38.3989 181C44.181 181 48.8681 185.704 48.8681 191.5Z" fill="black"/>
<path d="M108.692 215C108.692 219.968 104.675 224 99.7185 224C94.7624 224 90.7449 219.968 90.7449 215C90.7449 210.032 94.7624 206 99.7185 206C104.675 206 108.692 210.032 108.692 215Z" fill="black"/>
<path d="M46.2656 217.695C46.2656 221.946 42.8303 225.39 38.5932 225.39C34.3562 225.39 30.9209 221.946 30.9209 217.695C30.9209 213.444 34.3562 210 38.5932 210C42.8303 210 46.2656 213.444 46.2656 217.695Z" fill="black"/>
<path d="M115.063 190.695C115.063 194.946 111.628 198.39 107.391 198.39C103.154 198.39 99.7185 194.946 99.7185 190.695C99.7185 186.444 103.154 183 107.391 183C111.628 183 115.063 186.444 115.063 190.695Z" fill="black"/>
<path d="M65.2099 198.695C65.2099 202.946 61.7746 206.39 57.5375 206.39C53.3005 206.39 49.8652 202.946 49.8652 198.695C49.8652 194.444 53.3005 191 57.5375 191C61.7746 191 65.2099 194.444 65.2099 198.695Z" fill="black"/>
<path d="M72.7977 172C72.7977 177.52 68.3338 182 62.827 182C57.3202 182 52.8563 177.52 52.8563 172C52.8563 166.48 57.3202 162 62.827 162C68.3338 162 72.7977 166.48 72.7977 172Z" fill="black"/>
</svg>
