<?xml version="1.0" standalone="no"?>
<!DOCTYPE svg PUBLIC "-//W3C//DTD SVG 20010904//EN"
 "http://www.w3.org/TR/2001/REC-SVG-20010904/DTD/svg10.dtd">
<svg version="1.0" xmlns="http://www.w3.org/2000/svg"
 width="308.000000pt" height="308.000000pt" viewBox="0 0 308.000000 308.000000"
 preserveAspectRatio="xMidYMid meet">

<g transform="translate(0.000000,308.000000) scale(0.100000,-0.100000)"
fill="#000000" stroke="none">
<path d="M1038 2794 c-106 -32 -193 -160 -191 -279 1 -51 34 -145 52 -145 5 0
12 -9 16 -19 4 -13 -7 -36 -35 -73 -99 -128 -182 -365 -183 -523 -1 -109 21
-169 89 -235 56 -56 66 -97 33 -145 -13 -19 -27 -35 -30 -35 -3 0 -21 24 -39
53 -55 86 -100 124 -168 142 -218 57 -369 -238 -286 -558 36 -138 129 -283
201 -314 23 -9 50 -11 82 -7 45 6 52 4 102 -33 102 -74 144 -99 284 -167 160
-78 308 -118 442 -118 70 0 73 -2 112 -38 119 -114 318 -50 464 150 18 25 44
49 58 54 65 22 165 -33 209 -116 44 -83 124 -108 276 -83 211 34 287 99 238
206 -27 61 -56 79 -126 79 -93 0 -86 -14 -213 426 -18 60 -19 147 -4 177 7 12
43 54 80 93 86 89 125 170 147 298 15 90 15 96 -6 197 -12 57 -25 114 -28 127
-4 13 -2 22 5 22 41 0 126 106 155 193 22 67 21 164 -5 231 -57 152 -238 234
-392 176 -64 -24 -142 -93 -153 -135 -3 -14 -11 -25 -17 -25 -6 0 -45 17 -86
39 -167 85 -302 114 -532 115 l-166 1 -11 54 c-36 171 -203 268 -374 215z
m702 -394 c109 -13 254 -59 354 -113 l79 -42 12 -55 c6 -30 21 -73 32 -95 40
-76 131 -153 213 -180 43 -14 51 -21 64 -58 50 -139 47 -268 -9 -377 -77 -150
-201 -203 -540 -230 -263 -21 -621 32 -812 121 -67 30 -98 53 -162 116 -141
142 -167 217 -133 383 27 127 62 218 118 301 111 168 278 234 599 238 55 0
139 -4 185 -9z m-1141 -1076 c33 -24 51 -74 51 -147 0 -115 -43 -207 -97 -207
-78 0 -131 178 -85 283 13 29 33 54 54 67 40 24 47 25 77 4z m507 -93 c104
-34 301 -85 394 -101 36 -7 144 -15 240 -19 120 -6 186 -13 210 -23 76 -33
148 -143 170 -256 14 -74 -4 -148 -44 -181 -14 -12 -16 -8 -16 37 0 230 -163
358 -340 268 -129 -66 -244 -257 -275 -458 -7 -45 -6 -45 -162 -23 -156 22
-228 43 -263 75 -30 28 -30 29 -30 139 0 72 -5 123 -14 144 -7 18 -41 57 -74
88 -79 73 -87 94 -66 171 28 100 92 166 160 168 12 0 61 -13 110 -29z m739
-417 c24 -10 45 -58 45 -107 0 -56 -36 -125 -80 -154 -40 -28 -70 -29 -101 -4
-20 16 -24 28 -24 73 0 63 24 117 73 164 35 34 55 40 87 28z"/>
<path d="M1290 2174 c-173 -87 -290 -282 -223 -372 35 -48 149 -39 268 20 110
55 172 134 182 232 6 58 -21 127 -56 146 -38 20 -96 11 -171 -26z m153 -36
c43 -57 7 -208 -50 -216 -21 -3 -22 0 -20 40 1 28 9 49 22 59 17 15 18 20 7
43 -10 21 -18 27 -39 24 -20 -2 -37 -18 -67 -65 -23 -34 -47 -62 -53 -62 -39
-2 18 122 82 178 46 40 88 40 118 -1z"/>
<path d="M1885 2071 c-112 -69 -126 -228 -36 -398 37 -68 94 -129 131 -138 32
-8 86 27 112 70 28 49 41 161 29 252 -23 167 -69 233 -159 233 -28 0 -59 -7
-77 -19z m121 -29 c21 -14 34 -51 33 -94 0 -57 -39 -162 -61 -166 -14 -3 -16
5 -13 50 2 29 9 66 16 81 11 25 10 30 -8 48 -27 27 -53 14 -89 -42 -26 -42
-44 -44 -44 -3 0 80 110 164 166 126z"/>
<path d="M1482 1794 c-27 -19 -28 -55 -2 -79 27 -24 25 -51 -5 -80 -29 -30
-66 -32 -90 -5 -24 27 -35 25 -35 -4 0 -27 51 -76 78 -76 9 0 29 7 44 14 26
14 29 13 62 -20 41 -41 86 -46 110 -12 20 28 6 44 -24 28 -34 -18 -60 11 -60
67 0 41 3 45 35 59 28 12 35 20 35 43 0 15 -9 40 -21 55 -16 21 -29 26 -63 26
-23 0 -52 -7 -64 -16z"/>
<path d="M1405 1520 c-10 -16 21 -59 49 -66 13 -3 38 -4 57 -2 29 2 34 7 34
28 0 22 -5 26 -45 31 -25 4 -55 10 -66 14 -13 4 -25 2 -29 -5z"/>
<path d="M53 3 c9 -2 25 -2 35 0 9 3 1 5 -18 5 -19 0 -27 -2 -17 -5z"/>
</g>
</svg>
