<svg width="169" height="235" viewBox="0 0 169 235" fill="none" xmlns="http://www.w3.org/2000/svg">
<path d="M159.605 44.5357H10.0626V60.75L14.1043 60.7499L72.7089 60.7499H96.959L155.563 60.7499L159.605 60.75V44.5357Z" fill="white"/>
<path d="M96.9591 44.5356H72.7089V3.99988H96.9591V44.5356Z" fill="white"/>
<path d="M14.1043 60.7499L16.1252 85.0714H23.1981L35.3232 231H134.344L146.47 85.0714H153.542L155.563 60.7499L96.959 60.7499V85.0712H72.7089V60.7499L14.1043 60.7499Z" fill="white"/>
<path d="M96.959 60.7499H72.7089V85.0712H96.959V60.7499Z" fill="white"/>
<path d="M4 41.2024C2.15905 41.2024 0.666667 42.6947 0.666667 44.5357C0.666667 46.3766 2.15905 47.869 4 47.869V41.2024ZM165.667 47.869C167.508 47.869 169.001 46.3766 169.001 44.5357C169.001 42.6947 167.508 41.2024 165.667 41.2024V47.869ZM14.1043 60.7499L14.1043 57.4166H14.1043L14.1043 60.7499ZM16.1252 85.0714L12.8033 85.3474C12.9469 87.0753 14.3912 88.4047 16.1252 88.4047V85.0714ZM23.1981 85.0714L26.52 84.7953C26.3764 83.0674 24.9321 81.738 23.1981 81.738V85.0714ZM35.3232 231L32.0013 231.276C32.1449 233.004 33.5892 234.333 35.3232 234.333V231ZM134.344 231V234.333C136.078 234.333 137.523 233.004 137.666 231.276L134.344 231ZM146.47 85.0714V81.738C144.736 81.738 143.291 83.0674 143.148 84.7953L146.47 85.0714ZM153.542 85.0714V88.4047C155.276 88.4047 156.721 87.0753 156.864 85.3474L153.542 85.0714ZM155.563 60.7499L155.563 57.4166H155.563V60.7499ZM96.9591 44.5356V47.8689C98.8 47.8689 100.292 46.3766 100.292 44.5356H96.9591ZM72.7089 44.5356H69.3756C69.3756 46.3766 70.868 47.8689 72.7089 47.8689V44.5356ZM72.7089 3.99988V0.666545C70.868 0.666545 69.3756 2.15893 69.3756 3.99988L72.7089 3.99988ZM96.9591 3.99988H100.292C100.292 2.15893 98.8 0.666545 96.9591 0.666545V3.99988ZM72.7089 60.7499V57.4165V60.7499ZM96.959 60.7499V57.4165V60.7499ZM93.6257 143.5V146.833H100.292V143.5H93.6257ZM88.6782 179.224L91.4019 177.302L87.5587 171.855L84.835 173.776L88.6782 179.224ZM72.7089 186.411H69.3756C69.3756 187.656 70.0696 188.797 71.175 189.37C72.2805 189.943 73.6131 189.852 74.6305 189.134L72.7089 186.411ZM69.3756 115.5V118.833H76.0423V115.5H69.3756ZM76.0423 137.455V134.122H69.3756V137.455H76.0423ZM159.605 60.75V64.0833C161.446 64.0833 162.938 62.5909 162.938 60.75H159.605ZM10.0626 60.75H6.72923C6.72923 62.5909 8.22162 64.0833 10.0626 64.0833V60.75ZM10.0626 44.5357V41.2023C8.22162 41.2023 6.72923 42.6947 6.72923 44.5357H10.0626ZM159.605 44.5357H162.938C162.938 42.6947 161.446 41.2023 159.605 41.2023V44.5357ZM40.3752 81.7379C38.5343 81.7379 37.0419 83.2303 37.0419 85.0712C37.0419 86.9122 38.5343 88.4046 40.3752 88.4046V81.7379ZM129.292 88.4046C131.133 88.4046 132.626 86.9122 132.626 85.0712C132.626 83.2303 131.133 81.7379 129.292 81.7379V88.4046ZM4 47.869H165.667V41.2024H4V47.869ZM10.7824 61.0259L12.8033 85.3474L19.4471 84.7953L17.4262 60.4739L10.7824 61.0259ZM16.1252 88.4047H23.1981V81.738H16.1252V88.4047ZM19.8762 85.3474L32.0013 231.276L38.6451 230.724L26.52 84.7953L19.8762 85.3474ZM35.3232 234.333H134.344V227.667H35.3232V234.333ZM137.666 231.276L149.791 85.3474L143.148 84.7953L131.023 230.724L137.666 231.276ZM146.47 88.4047H153.542V81.738H146.47V88.4047ZM156.864 85.3474L158.885 61.0259L152.241 60.4739L150.221 84.7953L156.864 85.3474ZM155.563 57.4166H14.1043V64.0832H155.563V57.4166ZM96.9591 41.2023H72.7089V47.8689H96.9591V41.2023ZM76.0423 44.5356V3.99988H69.3756V44.5356H76.0423ZM72.7089 7.33321H96.9591V0.666545H72.7089V7.33321ZM93.6257 3.99988V44.5356H100.292V3.99988H93.6257ZM72.7089 64.0832H96.959V57.4165H72.7089V64.0832ZM84.835 173.776L70.7874 183.687L74.6305 189.134L88.6782 179.224L84.835 173.776ZM76.0423 186.411V137.455H69.3756V186.411H76.0423ZM159.605 57.4166H10.0626V64.0833H159.605V57.4166ZM13.3959 60.75V44.5357H6.72923V60.75H13.3959ZM10.0626 47.869H159.605V41.2023H10.0626V47.869ZM156.272 44.5357V60.75H162.938V44.5357H156.272ZM10.0626 64.0833L14.1044 64.0832L14.1043 57.4166L10.0625 57.4166L10.0626 64.0833ZM14.1043 64.0832L72.7089 64.0832V57.4165L14.1043 57.4166L14.1043 64.0832ZM96.959 64.0832L155.563 64.0832V57.4166L96.959 57.4165V64.0832ZM155.563 64.0832L159.605 64.0833L159.605 57.4166L155.563 57.4166L155.563 64.0832ZM93.6257 60.7499V85.0712H100.292V60.7499H93.6257ZM96.959 81.7379H72.7089V88.4046H96.959V81.7379ZM76.0423 85.0712V60.7499H69.3756V85.0712H76.0423ZM76.0423 115.5V85.0712H69.3756V115.5H76.0423ZM40.3752 88.4046H72.7089V81.7379H40.3752V88.4046ZM96.959 88.4046H129.292V81.7379H96.959V88.4046ZM93.6257 85.0712V143.5H100.292V85.0712H93.6257Z" fill="black"/>
<path d="M113.304 190.137L113.106 188.147L113.304 190.137ZM108.575 142.372L108.377 140.381L108.575 142.372ZM66.0069 136.316L66.1364 138.312L66.0069 136.316ZM40.5829 113.915L42.5787 113.787L40.5829 113.915ZM43.8459 100.175L44.9301 98.4948C44.4725 98.1996 43.9144 98.1037 43.3845 98.2293C42.8547 98.3549 42.399 98.6912 42.1226 99.1604L43.8459 100.175ZM84.0715 126.126L85.7111 127.271C86.0222 126.826 86.1387 126.273 86.034 125.74C85.9292 125.207 85.6122 124.74 85.1557 124.445L84.0715 126.126ZM131.428 110.227L133.238 111.076L131.428 110.227ZM113.383 101.713L115.194 102.562L113.383 101.713ZM135.658 91.811L137.469 92.6604C137.747 92.0669 137.717 91.3748 137.388 90.8077C137.059 90.2407 136.474 89.8708 135.82 89.8176L135.658 91.811ZM110.014 123.502C109.924 124.603 110.744 125.568 111.845 125.657C112.946 125.746 113.911 124.926 114.001 123.825L110.014 123.502ZM123.722 107.204C124.638 106.587 124.881 105.345 124.265 104.428C123.648 103.512 122.405 103.269 121.489 103.885L123.722 107.204ZM40.9394 165.29L39.0122 165.824L40.9394 165.29ZM64.4121 158.741L62.4849 159.275L64.4121 158.741ZM39.6036 142.239L39.7788 140.247C39.1255 140.189 38.4856 140.456 38.0662 140.96C37.6468 141.464 37.5011 142.142 37.6764 142.774L39.6036 142.239ZM59.5958 185.289C59.4999 186.39 60.3143 187.359 61.4147 187.455C62.5151 187.551 63.4848 186.737 63.5807 185.636L59.5958 185.289ZM53.9012 160.013C53.1011 159.252 51.8352 159.283 51.0736 160.083C50.3121 160.883 50.3433 162.149 51.1433 162.91L53.9012 160.013ZM127.898 205.134C127.898 209.629 124.263 213.268 119.793 213.268V217.268C126.484 217.268 131.898 211.826 131.898 205.134H127.898ZM119.793 213.268C115.323 213.268 111.689 209.629 111.689 205.134H107.689C107.689 211.826 113.102 217.268 119.793 217.268V213.268ZM111.689 205.134C111.689 200.639 115.323 197 119.793 197V193C113.102 193 107.689 198.441 107.689 205.134H111.689ZM119.793 197C124.263 197 127.898 200.639 127.898 205.134H131.898C131.898 198.441 126.484 193 119.793 193V197ZM102.918 216.107C102.918 219.487 100.188 222.214 96.8341 222.214V226.214C102.408 226.214 106.918 221.686 106.918 216.107H102.918ZM96.8341 222.214C93.4799 222.214 90.7508 219.487 90.7508 216.107H86.7508C86.7508 221.686 91.2603 226.214 96.8341 226.214V222.214ZM90.7508 216.107C90.7508 212.727 93.4799 210 96.8341 210V206C91.2603 206 86.7508 210.529 86.7508 216.107H90.7508ZM96.8341 210C100.188 210 102.918 212.727 102.918 216.107H106.918C106.918 210.529 102.408 206 96.8341 206V210ZM71.0648 211.134C71.0648 215.629 67.4306 219.268 62.9605 219.268V223.268C69.6516 223.268 75.0648 217.826 75.0648 211.134H71.0648ZM62.9605 219.268C58.4905 219.268 54.8563 215.629 54.8563 211.134H50.8563C50.8563 217.826 56.2695 223.268 62.9605 223.268V219.268ZM54.8563 211.134C54.8563 206.639 58.4905 203 62.9605 203V199C56.2695 199 50.8563 204.441 50.8563 211.134H54.8563ZM62.9605 203C67.4306 203 71.0648 206.639 71.0648 211.134H75.0648C75.0648 204.441 69.6516 199 62.9605 199V203ZM132.762 164.08C133.96 176.181 125.153 186.947 113.106 188.147L113.503 192.127C127.757 190.707 138.157 177.974 136.742 163.685L132.762 164.08ZM113.106 188.147C101.06 189.346 90.3155 180.529 89.1174 168.429L85.1369 168.823C86.5517 183.112 99.2468 193.547 113.503 192.127L113.106 188.147ZM89.1174 168.429C87.9193 156.327 96.726 145.562 108.773 144.362L108.377 140.381C94.122 141.801 83.7221 154.534 85.1369 168.823L89.1174 168.429ZM108.773 144.362C120.819 143.162 131.564 151.979 132.762 164.08L136.742 163.685C135.328 149.396 122.632 138.962 108.377 140.381L108.773 144.362ZM107.668 143.361L109.917 191.373L113.912 191.186L111.664 143.174L107.668 143.361ZM89.3435 157.464L130.847 181.971L132.881 178.527L91.3773 154.02L89.3435 157.464ZM128.764 150.256L91.2901 181.623L93.8576 184.691L131.332 153.323L128.764 150.256ZM65.8775 134.32C53.797 135.104 43.3612 125.922 42.5787 113.787L38.587 114.044C39.511 128.374 51.8405 139.239 66.1364 138.312L65.8775 134.32ZM42.5787 113.787C42.2831 109.202 43.4064 104.862 45.5692 101.19L42.1226 99.1604C39.5655 103.502 38.2383 108.636 38.587 114.044L42.5787 113.787ZM82.4319 124.981C78.741 130.265 72.786 133.872 65.8775 134.32L66.1364 138.312C74.3113 137.782 81.3554 133.507 85.7111 127.271L82.4319 124.981ZM42.7617 101.856L82.9873 127.806L85.1557 124.445L44.9301 98.4948L42.7617 101.856ZM62.6031 114.579L65.0459 136.968L69.0223 136.534L66.5795 114.145L62.6031 114.579ZM43.1804 102.837L83.8188 128.761L85.9701 125.388L45.3316 99.4647L43.1804 102.837ZM64.3052 111.712L44.3113 127.038L46.7447 130.213L66.7386 114.887L64.3052 111.712ZM129.617 109.377C127.264 114.395 122.113 116.362 118.365 114.594L116.658 118.212C122.881 121.148 130.185 117.587 133.238 111.076L129.617 109.377ZM118.365 114.594C114.613 112.824 112.84 107.581 115.194 102.562L111.573 100.864C108.519 107.373 110.441 115.278 116.658 118.212L118.365 114.594ZM115.194 102.562C117.447 97.7585 122.258 95.4991 126.93 94.4852C129.23 93.986 131.389 93.8151 132.978 93.7707C133.77 93.7486 134.413 93.758 134.852 93.7726C135.071 93.7799 135.239 93.7884 135.349 93.7949C135.404 93.7981 135.444 93.8008 135.469 93.8025C135.481 93.8034 135.49 93.804 135.494 93.8043C135.497 93.8045 135.498 93.8046 135.498 93.8046C135.498 93.8046 135.498 93.8046 135.498 93.8046C135.498 93.8046 135.497 93.8046 135.497 93.8045C135.497 93.8045 135.496 93.8045 135.658 91.811C135.82 89.8176 135.82 89.8176 135.819 89.8175C135.818 89.8175 135.818 89.8174 135.817 89.8173C135.815 89.8172 135.814 89.8171 135.812 89.8169C135.808 89.8166 135.803 89.8163 135.797 89.8158C135.785 89.8149 135.769 89.8137 135.75 89.8123C135.71 89.8095 135.654 89.8059 135.583 89.8017C135.442 89.7934 135.24 89.7833 134.984 89.7748C134.474 89.7579 133.749 89.7476 132.866 89.7722C131.106 89.8214 128.688 90.0103 126.081 90.5762C120.939 91.6924 114.612 94.3839 111.573 100.864L115.194 102.562ZM133.847 90.9617C132.414 94.018 132.008 97.5216 131.617 100.646C131.208 103.905 130.811 106.831 129.617 109.377L133.238 111.076C134.746 107.863 135.191 104.296 135.586 101.144C135.997 97.8578 136.356 95.0333 137.469 92.6604L133.847 90.9617ZM114.001 123.825C114.548 117.086 118.126 110.969 123.722 107.204L121.489 103.885C114.881 108.331 110.659 115.553 110.014 123.502L114.001 123.825ZM39.0122 165.824C41.312 174.116 49.1751 179.69 56.9777 177.513L55.9027 173.661C50.7366 175.102 44.7263 171.46 42.8666 164.755L39.0122 165.824ZM56.9777 177.513C64.7768 175.337 68.6389 166.497 66.3394 158.206L62.4849 159.275C64.3449 165.981 61.0723 172.218 55.9027 173.661L56.9777 177.513ZM66.3394 158.206C64.0565 149.976 57.1445 145.511 51.2276 143.13C48.2353 141.926 45.3902 141.209 43.2985 140.792C42.2498 140.583 41.3834 140.448 40.7733 140.365C40.468 140.323 40.2265 140.294 40.0578 140.275C39.9734 140.266 39.9072 140.259 39.8603 140.255C39.8369 140.252 39.8183 140.25 39.8047 140.249C39.7978 140.249 39.7923 140.248 39.788 140.248C39.7858 140.247 39.784 140.247 39.7824 140.247C39.7817 140.247 39.7808 140.247 39.7804 140.247C39.7796 140.247 39.7788 140.247 39.6036 142.239C39.4285 144.231 39.4279 144.231 39.4274 144.231C39.4273 144.231 39.4269 144.231 39.4267 144.231C39.4265 144.231 39.4265 144.231 39.4269 144.231C39.4276 144.231 39.4295 144.232 39.4327 144.232C39.439 144.232 39.4502 144.234 39.4662 144.235C39.498 144.238 39.5488 144.243 39.6173 144.251C39.7543 144.266 39.9623 144.291 40.232 144.328C40.7719 144.402 41.5573 144.524 42.5164 144.715C44.4401 145.098 47.0337 145.754 49.7346 146.841C55.2041 149.042 60.6964 152.827 62.4849 159.275L66.3394 158.206ZM37.6764 142.774C38.5551 145.941 38.4029 149.493 38.2287 153.517C38.0603 157.407 37.8746 161.723 39.0122 165.824L42.8666 164.755C41.926 161.364 42.052 157.686 42.225 153.69C42.3921 149.828 42.6112 145.599 41.5309 141.705L37.6764 142.774ZM63.5807 185.636C64.4144 176.063 60.8542 166.632 53.9012 160.013L51.1433 162.91C57.2133 168.688 60.3242 176.925 59.5958 185.289L63.5807 185.636Z" fill="black"/>
</svg>
