<svg width="329" height="337" viewBox="0 0 329 337" fill="none" xmlns="http://www.w3.org/2000/svg">
<path fill-rule="evenodd" clip-rule="evenodd" d="M119.088 1.33818C109.44 4.29834 101.555 15.9016 101.731 26.8796C101.806 31.5596 104.896 40.1724 106.5 40.1724C106.989 40.1724 107.641 40.9654 107.949 41.9353C108.333 43.1463 107.35 45.2264 104.806 48.5817C99.7333 55.273 96.2829 62.0486 92.9822 71.8C85.0656 95.1917 85.8374 107.103 95.9719 117.926C101.288 123.603 102.098 127.047 99.1396 131.387C97.9402 133.145 96.7032 134.587 96.3912 134.591C96.0783 134.594 94.2595 132.105 92.3481 129.061C86.0806 119.073 77.4776 114.538 68.4508 116.461C63.4707 117.522 56.67 123.554 53.5372 129.689C50.4915 135.652 48.458 147.619 49.1279 155.639C50.2291 168.834 55.6524 182.933 62.7036 190.936C67.5707 196.461 71.2633 198.098 77.1069 197.323C81.374 196.758 81.7272 196.902 89.2446 202.274C98.9973 209.244 117.518 218.711 127.7 221.932C138.271 225.278 144.29 226.362 152.675 226.435C159.57 226.494 159.85 226.586 163.38 229.941C168.508 234.814 174.207 236.088 181.993 234.102C192.318 231.47 197.538 227.568 205.948 216.195C207.624 213.93 210.048 211.707 211.337 211.254C217.218 209.188 226.418 214.295 230.441 221.859C234.506 229.502 241.869 231.729 255.716 229.502C275.759 226.281 282.543 220.082 277.288 209.794C274.715 204.755 272.294 203.353 266.162 203.353C262.57 203.353 260.354 202.857 258.997 201.749C257.186 200.272 254.578 192.458 246.498 164.311C245.762 161.745 245.159 157.368 245.159 154.584C245.159 148.644 246.921 145.562 254.213 138.747C260.701 132.686 265.059 123.695 266.98 112.41C268.417 103.972 268.402 103.444 266.436 94.1778C265.323 88.9285 264.161 83.7067 263.855 82.5718C263.455 81.0912 263.692 80.5091 264.697 80.5091C267.137 80.5091 274.12 72.8286 276.822 67.1705C280.464 59.5459 281.035 49.2408 278.227 41.8032C271.23 23.2713 246.504 17.6956 232.658 31.5275C230.484 33.7002 228.438 36.5338 228.115 37.8246C227.79 39.1163 227.147 40.1724 226.686 40.1724C226.225 40.1724 222.656 38.58 218.756 36.6346C202.937 28.7424 190.842 26.1205 169.826 26.0288L154.599 25.9628L153.563 21.0408C150.24 5.24168 134.914 -3.51598 119.088 1.33818ZM195.147 39.6489C200.658 41.0607 208.156 43.9246 213.916 46.816L223.509 51.6317L224.521 56.6738C225.98 63.9417 228.686 68.5034 235.003 74.3458C238.8 77.8588 242.306 80.1259 246.042 81.4864C250.989 83.2896 251.647 83.8442 252.888 87.2664C257.496 99.9688 257.208 111.76 252.048 121.763C244.937 135.547 233.598 140.364 202.488 142.823C178.057 144.754 144.998 139.804 127.771 131.638C114.28 125.243 100.991 109.96 99.6883 99.3409C98.5137 89.7737 104.52 69.2093 111.592 58.5815C122.556 42.1058 139.067 36.1708 171.747 36.9555C183.227 37.2314 187.741 37.7512 195.147 39.6489ZM142.379 58.1754C126.352 66.1859 115.706 83.9047 121.91 92.2416C127.956 100.367 154.192 90.3861 160.892 77.4124C163.759 71.8605 164.105 65.1417 161.761 60.5497C160.689 58.4522 159.015 56.3089 158.04 55.7873C154.571 53.9327 149.242 54.7458 142.379 58.1754ZM156.461 61.4812C160.329 66.6791 157.064 80.5045 151.791 81.2581C149.933 81.5239 149.775 81.2058 149.97 77.5911C150.111 74.9674 150.79 73.1293 151.985 72.1365C153.551 70.8356 153.64 70.3186 152.666 68.1807C151.781 66.2418 151.01 65.7825 149.028 66.0099C147.088 66.2336 145.671 67.5986 142.841 71.9715C136.983 81.0252 134.237 78.4666 139.655 69.004C145.418 58.9427 152.285 55.8688 156.461 61.4812ZM196.983 67.5472C189.038 72.4491 186.353 81.9658 189.54 93.9229C192.244 104.064 200.274 115.371 205.723 116.706C208.591 117.409 213.614 114.254 215.922 110.301C218.131 106.515 219.646 96.113 218.975 89.3447C217.414 73.6189 212.477 65.8375 204.062 65.8449C201.457 65.8467 198.64 66.5242 196.983 67.5472ZM209.335 71.5149C210.728 73.0083 211.192 74.7061 211.152 78.1613C211.084 83.9341 207.653 93.6662 205.542 94.0723C204.235 94.3235 204.052 93.647 204.307 89.5005C204.472 86.8246 205.134 83.4821 205.777 82.0749C206.813 79.8096 206.73 79.2972 205.06 77.6278C202.625 75.1956 200.184 76.359 196.937 81.4992C194.47 85.4027 192.853 85.5154 192.853 81.7843C192.853 76.2004 199.125 69.5082 204.359 69.5082C206.372 69.5082 208.122 70.2141 209.335 71.5149ZM160.023 92.9374C157.487 94.7104 157.394 98.0281 159.818 100.219C162.269 102.436 162.132 104.866 159.4 107.594C156.672 110.321 153.343 110.488 151.1 108.011C150.187 107.003 149.091 106.178 148.664 106.178C147.166 106.178 147.908 110.437 149.75 112.411C152.326 115.174 155.538 115.784 158.843 114.136C161.554 112.785 161.705 112.83 164.758 115.881C168.55 119.669 172.701 120.122 174.898 116.987C176.687 114.437 175.415 112.958 172.687 114.417C169.579 116.079 167.159 113.393 167.159 108.281C167.159 104.542 167.391 104.154 170.371 102.911C172.977 101.822 173.583 101.076 173.583 98.9549C173.583 97.5175 172.726 95.254 171.68 93.9257C170.164 92.0005 168.995 91.51 165.92 91.51C163.798 91.51 161.144 92.1527 160.023 92.9374ZM152.96 118.056C152.025 119.567 154.9 123.479 157.408 124.108C158.594 124.405 160.963 124.515 162.674 124.351C165.299 124.1 165.783 123.698 165.783 121.763C165.783 119.745 165.288 119.4 161.653 118.879C159.382 118.555 156.641 118.003 155.563 117.654C154.424 117.285 153.333 117.454 152.96 118.056ZM78.9578 136.092C82.0429 138.251 83.6534 142.865 83.6534 149.548C83.6534 160.046 79.6892 168.517 74.7761 168.517C70.1833 168.517 66.1383 161.654 65.5033 152.784C65.1399 147.713 65.4207 145.928 67.1431 142.375C69.0197 138.502 73.3941 134.61 75.8782 134.601C76.3976 134.599 77.7832 135.27 78.9578 136.092ZM125.514 144.612C134.202 147.47 152.113 152.11 161.194 153.857C164.223 154.439 174.133 155.238 183.218 155.634C194.584 156.128 200.738 156.786 202.947 157.744C209.884 160.75 216.539 170.773 218.517 181.191C219.807 187.988 218.164 194.746 214.478 197.802C213.206 198.857 213.041 198.46 213.041 194.343C213.041 178.246 204.455 167.196 191.935 167.183C176.249 167.165 160.412 187.175 156.596 211.833C155.965 215.913 156.083 215.897 141.722 213.883C127.433 211.88 120.784 209.985 117.59 207.004C114.87 204.467 114.853 204.389 114.853 194.247C114.853 187.709 114.405 182.983 113.607 181.092C112.922 179.47 109.832 175.818 106.742 172.977C99.5112 166.329 98.7697 164.399 100.746 157.362C103.322 148.191 109.145 142.083 115.42 141.967C116.489 141.947 121.031 143.137 125.514 144.612ZM193.271 182.837C195.548 183.71 197.441 188.152 197.441 192.621C197.441 197.725 194.175 204.052 190.126 206.791C186.395 209.314 183.645 209.405 180.796 207.1C179.004 205.651 178.632 204.503 178.646 200.454C178.666 194.647 180.848 189.737 185.349 185.37C188.502 182.312 190.354 181.719 193.271 182.837Z" fill="black"/>
<path fill-rule="evenodd" clip-rule="evenodd" d="M195.147 39.6489C200.658 41.0607 208.156 43.9246 213.916 46.816L223.509 51.6317L224.521 56.6738C225.98 63.9417 228.686 68.5034 235.003 74.3458C238.8 77.8588 242.306 80.1259 246.042 81.4864C250.989 83.2896 251.647 83.8442 252.888 87.2664C257.496 99.9688 257.208 111.76 252.048 121.763C244.937 135.547 233.598 140.364 202.488 142.823C178.057 144.754 144.998 139.804 127.771 131.638C114.28 125.243 100.991 109.96 99.6883 99.3409C98.5137 89.7737 104.52 69.2093 111.592 58.5815C122.556 42.1058 139.067 36.1708 171.747 36.9555C183.227 37.2314 187.741 37.7512 195.147 39.6489ZM121.91 92.2416C115.706 83.9047 126.352 66.1859 142.379 58.1754C149.242 54.7458 154.571 53.9327 158.04 55.7873C159.015 56.3089 160.689 58.4522 161.761 60.5497C164.105 65.1417 163.759 71.8605 160.892 77.4124C154.192 90.3861 127.956 100.367 121.91 92.2416ZM189.54 93.9229C186.353 81.9658 189.038 72.4491 196.983 67.5472C198.64 66.5242 201.457 65.8467 204.062 65.8449C212.477 65.8375 217.414 73.6189 218.975 89.3447C219.646 96.113 218.131 106.515 215.922 110.301C213.614 114.254 208.591 117.409 205.723 116.706C200.274 115.371 192.244 104.064 189.54 93.9229ZM159.818 100.219C157.394 98.0281 157.487 94.7104 160.023 92.9374C161.144 92.1527 163.798 91.51 165.92 91.51C168.995 91.51 170.164 92.0005 171.68 93.9257C172.726 95.254 173.583 97.5175 173.583 98.9549C173.583 101.076 172.977 101.822 170.371 102.911C167.391 104.154 167.159 104.542 167.159 108.281C167.159 113.393 169.579 116.079 172.687 114.417C175.415 112.958 176.687 114.437 174.898 116.987C172.701 120.122 168.55 119.669 164.758 115.881C161.705 112.83 161.554 112.785 158.843 114.136C155.538 115.784 152.326 115.174 149.75 112.411C147.908 110.437 147.166 106.178 148.664 106.178C149.091 106.178 150.187 107.003 151.1 108.011C153.343 110.488 156.672 110.321 159.4 107.594C162.132 104.866 162.269 102.436 159.818 100.219ZM157.408 124.108C154.9 123.479 152.025 119.567 152.96 118.056C153.333 117.454 154.424 117.285 155.563 117.654C156.641 118.003 159.382 118.555 161.653 118.879C165.288 119.4 165.783 119.745 165.783 121.763C165.783 123.698 165.299 124.1 162.674 124.351C160.963 124.515 158.594 124.405 157.408 124.108Z" fill="white"/>
<path d="M125.514 144.612C134.202 147.47 152.113 152.11 161.194 153.857C164.223 154.439 174.133 155.238 183.218 155.634C194.584 156.128 200.738 156.786 202.947 157.744C209.884 160.75 216.539 170.773 218.517 181.191C219.807 187.988 218.164 194.746 214.478 197.802C213.206 198.857 213.041 198.46 213.041 194.343C213.041 178.246 204.455 167.196 191.935 167.183C176.249 167.165 160.412 187.175 156.596 211.833C155.965 215.913 156.083 215.897 141.722 213.883C127.433 211.88 120.784 209.985 117.59 207.004C114.87 204.467 114.853 204.389 114.853 194.247C114.853 187.709 114.405 182.983 113.607 181.092C112.922 179.47 109.832 175.818 106.742 172.977C99.5112 166.329 98.7697 164.399 100.746 157.362C103.322 148.191 109.145 142.083 115.42 141.967C116.489 141.947 121.031 143.137 125.514 144.612Z" fill="white"/>
<path d="M125.514 144.612C134.202 147.47 152.113 152.11 161.194 153.857C164.223 154.439 174.133 155.238 183.218 155.634C194.584 156.128 200.738 156.786 202.947 157.744C209.884 160.75 216.539 170.773 218.517 181.191C219.807 187.988 218.164 194.746 214.478 197.802C213.206 198.857 213.041 198.46 213.041 194.343C213.041 178.246 204.455 167.196 191.935 167.183C176.249 167.165 160.412 187.175 156.596 211.833C155.965 215.913 156.083 215.897 141.722 213.883C127.433 211.88 120.784 209.985 117.59 207.004C114.87 204.467 114.853 204.389 114.853 194.247C114.853 187.709 114.405 182.983 113.607 181.092C112.922 179.47 109.832 175.818 106.742 172.977C99.5112 166.329 98.7697 164.399 100.746 157.362C103.322 148.191 109.145 142.083 115.42 141.967C116.489 141.947 121.031 143.137 125.514 144.612Z" fill="white" fill-opacity="0.2"/>
<path d="M193.271 182.837C195.548 183.71 197.441 188.152 197.441 192.621C197.441 197.725 194.175 204.052 190.126 206.791C186.395 209.314 183.645 209.405 180.796 207.1C179.004 205.651 178.632 204.503 178.646 200.454C178.666 194.647 180.848 189.737 185.349 185.37C188.502 182.312 190.354 181.719 193.271 182.837Z" fill="white"/>
<path d="M193.271 182.837C195.548 183.71 197.441 188.152 197.441 192.621C197.441 197.725 194.175 204.052 190.126 206.791C186.395 209.314 183.645 209.405 180.796 207.1C179.004 205.651 178.632 204.503 178.646 200.454C178.666 194.647 180.848 189.737 185.349 185.37C188.502 182.312 190.354 181.719 193.271 182.837Z" fill="white" fill-opacity="0.2"/>
<path d="M78.9578 136.092C82.0429 138.251 83.6534 142.865 83.6534 149.548C83.6534 160.046 79.6892 168.517 74.7761 168.517C70.1833 168.517 66.1383 161.654 65.5033 152.784C65.1399 147.713 65.4207 145.928 67.1431 142.375C69.0197 138.502 73.3941 134.61 75.8782 134.601C76.3976 134.599 77.7832 135.27 78.9578 136.092Z" fill="white"/>
<path d="M78.9578 136.092C82.0429 138.251 83.6534 142.865 83.6534 149.548C83.6534 160.046 79.6892 168.517 74.7761 168.517C70.1833 168.517 66.1383 161.654 65.5033 152.784C65.1399 147.713 65.4207 145.928 67.1431 142.375C69.0197 138.502 73.3941 134.61 75.8782 134.601C76.3976 134.599 77.7832 135.27 78.9578 136.092Z" fill="white" fill-opacity="0.2"/>
<path d="M209.335 71.5149C210.728 73.0083 211.192 74.7061 211.152 78.1613C211.084 83.9341 207.653 93.6662 205.542 94.0723C204.235 94.3235 204.052 93.647 204.307 89.5005C204.472 86.8246 205.134 83.4821 205.777 82.0749C206.813 79.8096 206.73 79.2972 205.06 77.6278C202.625 75.1956 200.184 76.359 196.937 81.4992C194.47 85.4027 192.853 85.5154 192.853 81.7843C192.853 76.2004 199.125 69.5082 204.359 69.5082C206.372 69.5082 208.122 70.2141 209.335 71.5149Z" fill="white"/>
<path d="M209.335 71.5149C210.728 73.0083 211.192 74.7061 211.152 78.1613C211.084 83.9341 207.653 93.6662 205.542 94.0723C204.235 94.3235 204.052 93.647 204.307 89.5005C204.472 86.8246 205.134 83.4821 205.777 82.0749C206.813 79.8096 206.73 79.2972 205.06 77.6278C202.625 75.1956 200.184 76.359 196.937 81.4992C194.47 85.4027 192.853 85.5154 192.853 81.7843C192.853 76.2004 199.125 69.5082 204.359 69.5082C206.372 69.5082 208.122 70.2141 209.335 71.5149Z" fill="white" fill-opacity="0.2"/>
<path d="M156.461 61.4812C160.329 66.6791 157.064 80.5045 151.791 81.2581C149.933 81.5239 149.775 81.2058 149.97 77.5911C150.111 74.9674 150.79 73.1293 151.985 72.1365C153.551 70.8356 153.64 70.3186 152.666 68.1807C151.781 66.2418 151.01 65.7825 149.028 66.0099C147.088 66.2336 145.671 67.5986 142.841 71.9715C136.983 81.0252 134.237 78.4666 139.655 69.004C145.418 58.9427 152.285 55.8688 156.461 61.4812Z" fill="white"/>
<path d="M156.461 61.4812C160.329 66.6791 157.064 80.5045 151.791 81.2581C149.933 81.5239 149.775 81.2058 149.97 77.5911C150.111 74.9674 150.79 73.1293 151.985 72.1365C153.551 70.8356 153.64 70.3186 152.666 68.1807C151.781 66.2418 151.01 65.7825 149.028 66.0099C147.088 66.2336 145.671 67.5986 142.841 71.9715C136.983 81.0252 134.237 78.4666 139.655 69.004C145.418 58.9427 152.285 55.8688 156.461 61.4812Z" fill="white" fill-opacity="0.2"/>
<path fill-rule="evenodd" clip-rule="evenodd" d="M99.5927 235.174C98.8725 235.327 98.0465 236.073 97.7577 236.832C97.4689 237.592 95.2974 245.819 92.932 255.113C85.7876 283.194 80.0989 301.845 78.6789 301.845C78.3248 301.845 75.5933 297.179 72.6094 291.475C67.1857 281.108 65.3678 278.718 63.4634 279.449C62.4072 279.854 56.3803 287.741 48.087 299.572C45.3487 303.478 42.8099 306.732 42.445 306.802C42.0806 306.872 40.8249 304.955 39.6555 302.54C38.4856 300.126 35.6666 294.572 33.3905 290.196C31.1149 285.821 26.8605 276.324 23.9363 269.09C21.0127 261.857 17.8208 254.314 16.8425 252.328C14.3935 247.354 13.2378 247.284 7.10638 251.734C2.19883 255.295 0 257.955 0 260.331C0 261.157 1.3052 264.109 2.90031 266.89C4.49542 269.67 8.05116 277.219 10.802 283.665C18.5956 301.927 26.296 316.736 34.8048 329.824C38.3481 335.275 39.016 336 41.0556 336.611C43.0515 337.208 43.5984 337.155 45.4027 336.19C47.2479 335.202 48.1905 333.659 54.2884 321.645C60.7399 308.933 64.9266 301.845 65.984 301.845C66.7224 301.845 69.5852 306.261 75.3096 316.234C80.9533 326.065 82.3307 327.49 85.2225 326.491C86.5334 326.039 87.045 324.889 89.9953 315.761C96.8061 294.693 107.395 263.273 109.719 257.24C112.716 249.46 114.544 242.247 114.033 240.216C113.331 237.419 104.146 234.212 99.5927 235.174ZM157.666 248.876C156.995 248.98 155.992 249.567 155.437 250.18C154.29 251.446 154.219 256.128 155.189 266.505C156.253 277.89 156.47 298.281 155.587 303.833C154.672 309.58 154.925 310.369 157.676 310.366C161.243 310.362 162.571 308.855 167.413 299.321C173.112 288.099 175.774 285.544 177.803 289.349C178.56 290.77 178.548 291.654 177.559 307.329C177.231 312.508 177.236 312.533 178.77 313.537C179.841 314.239 181.487 314.558 184.187 314.587C187.5 314.623 188.27 314.436 189.48 313.303C190.258 312.573 191.052 311.145 191.242 310.129C191.666 307.872 190.119 285.721 189.235 281.389C188.391 277.256 186.336 273.293 184.36 271.987C180.593 269.498 173.055 271.63 168.22 276.551C166.838 277.957 165.452 279.11 165.139 279.112C164.782 279.114 164.495 274.202 164.369 265.905C164.224 256.403 163.956 252.286 163.415 251.24C162.626 249.712 159.794 248.548 157.666 248.876ZM251.526 250.692C248.731 251.791 248.726 251.826 248.341 274.231C247.989 294.64 247.564 300.117 245.781 307.179C244.758 311.232 245.146 311.811 248.829 311.732C252.127 311.661 253.156 310.585 257.746 302.413C262.209 294.465 265.254 289.718 267.018 287.954C269.682 285.292 272.215 286.48 273.116 290.813C273.661 293.434 272.478 308.023 271.495 310.797C271.023 312.127 270.563 314.158 270.471 315.311C270.308 317.365 270.36 317.423 273.006 318.183C274.837 318.708 276.473 318.806 278.084 318.488C280.052 318.099 280.549 317.726 280.972 316.324C281.254 315.392 281.616 308.621 281.777 301.277C282.097 286.678 281.508 281.565 279.052 277.592C275.937 272.555 268.586 272.967 261.144 278.598C259.074 280.164 257.31 281.368 257.223 281.275C257.136 281.182 257.309 276.63 257.607 271.161C258.562 253.665 258.565 253.772 256.946 252.212C255.308 250.632 253.188 250.039 251.526 250.692ZM306.971 260.635C303.614 261.71 298.122 265.09 294.2 268.495C290.545 271.669 290.255 273.031 292.585 276.085C295.567 279.994 297.756 279.717 304.024 274.638C307.22 272.049 307.912 271.73 310.32 271.73C313.518 271.73 314.979 272.96 316.331 276.789C317.499 280.097 317.463 280.253 315.535 280.253C309.536 280.253 299.147 284.304 295.21 288.178C291.616 291.715 290.805 293.054 289.949 296.874C288.493 303.368 293.644 313.04 300.376 316.449C304.189 318.38 310.772 318.816 316.341 317.506C320.078 316.628 320.354 316.631 321.031 317.556C321.427 318.097 321.751 318.706 321.751 318.909C321.751 319.601 324.477 320.52 325.634 320.217C328.549 319.455 329.67 309.952 328.605 295.026C327.27 276.297 326 269.717 322.829 265.109C319.828 260.749 312.805 258.768 306.971 260.635ZM220.28 261.002C216.459 261.879 209.06 264.426 206.25 265.832C201.906 268.005 200.858 270.485 202.726 274.173C205.005 278.672 207.011 279.049 211.922 275.903C220.943 270.124 225.072 270.256 227.643 276.407C229.319 280.416 229.144 280.607 223.407 281.014C215.479 281.576 207.973 284.484 203.882 288.577C199.772 292.69 198.496 296.976 199.845 302.15C201.111 307.01 202.3 309.157 205.52 312.402C209.983 316.898 213.13 317.894 223.845 318.198C234.5 318.501 236.144 318.248 236.982 316.178C238.236 313.079 238.733 306.383 238.74 292.469C238.747 277.473 238.281 272.628 236.414 268.29C233.745 262.088 227.613 259.318 220.28 261.002ZM130.178 261.757C124.876 262.863 116.04 265.412 114.18 266.374C111.746 267.632 111.289 268.945 112.294 271.793C113.659 275.658 116.501 277.742 119.553 277.113C120.551 276.908 123.335 275.741 125.74 274.519C133.138 270.762 137.448 271.656 138.739 277.215C139.825 281.893 140.154 281.673 132.026 281.701C125.625 281.722 124.291 281.903 120.606 283.245C110.012 287.104 106.124 293.872 108.779 303.833C110.349 309.72 113.334 313.582 118.191 316.01C121.023 317.426 123.123 317.948 130.915 319.18C132.572 319.442 133.206 319.872 133.651 321.041C134.36 322.907 135.112 323.417 137.171 323.428C141.997 323.454 144.404 318.964 145.236 308.379C145.433 305.879 146.078 301.149 146.672 297.867C150.416 277.15 150.232 270.795 145.733 265.542C142.475 261.738 136.843 260.368 130.178 261.757ZM229.188 293.601C229.291 295.941 229.291 299.919 229.189 302.439C229.012 306.805 228.931 307.048 227.484 307.61C225.578 308.351 215.523 307.321 213.266 306.154C208.194 303.532 210.104 296.316 216.723 293.089C219.07 291.944 226.352 289.682 228.62 289.393C228.83 289.366 229.086 291.26 229.188 293.601ZM138.257 294.174C138.048 298.514 137.038 305.649 136.393 307.344C135.98 308.43 135.674 308.563 134.567 308.143C133.835 307.864 130.822 307.35 127.87 306.998C122.122 306.314 120.206 305.41 118.913 302.772C117.398 299.684 120.16 295.338 125.014 293.17C127.528 292.047 135.149 290.495 137.284 290.671C138.305 290.755 138.404 291.114 138.257 294.174ZM319.313 292.185C320.085 293.717 320.241 301.22 319.579 304.97C319.178 307.238 319.17 307.243 316.058 307.601C312.302 308.033 305.802 307.265 303.607 306.13C301.636 305.111 300.484 302.498 300.991 300.192C301.199 299.242 302.514 297.193 303.912 295.639C307.054 292.147 310.963 290.457 315.484 290.64C318.171 290.748 318.694 290.959 319.313 292.185ZM125.621 296.741C124.797 297.564 124.498 298.379 124.718 299.198C124.898 299.872 125.05 300.609 125.054 300.836C125.067 301.5 128.301 302.981 129.74 302.981C131.932 302.981 133.589 301.437 133.589 299.392C133.589 297.271 132.592 296.478 129.205 295.906C127.232 295.573 126.654 295.708 125.621 296.741Z" fill="black"/>
</svg>
